<?xml version="1.0" standalone="no"?>
<!DOCTYPE svg PUBLIC "-//W3C//DTD SVG 20010904//EN"
 "http://www.w3.org/TR/2001/REC-SVG-20010904/DTD/svg10.dtd">
<svg version="1.0" xmlns="http://www.w3.org/2000/svg"
 width="800.000000pt" height="800.000000pt" viewBox="0 0 800.000000 800.000000"
 preserveAspectRatio="xMidYMid meet">
<metadata>
Created by potrace 1.11, written by Peter Selinger 2001-2013
</metadata>
<g transform="translate(0.000000,800.000000) scale(0.100000,-0.100000)"
fill="#000000" stroke="none">
<path d="M4490 7797 c0 -5 -7 -7 -14 -4 -10 4 -13 1 -10 -7 3 -9 -3 -13 -18
-12 -13 1 -31 -8 -41 -19 -10 -11 -15 -14 -11 -6 5 9 3 12 -4 7 -7 -4 -12 -14
-12 -22 0 -8 -4 -13 -9 -10 -5 4 -11 2 -13 -3 -1 -5 -9 -11 -17 -13 -8 -2 -23
-10 -33 -18 -10 -8 -20 -13 -21 -11 -1 3 -15 -7 -31 -22 -16 -15 -32 -25 -36
-22 -4 3 -13 -2 -20 -10 -7 -8 -20 -15 -29 -15 -9 0 -24 -9 -33 -20 -9 -10
-35 -31 -57 -46 -23 -15 -41 -31 -41 -37 0 -5 -6 -4 -14 2 -11 9 -16 9 -22 0
-4 -8 -3 -9 4 -5 7 4 12 3 12 -2 0 -5 -21 -20 -47 -33 -27 -13 -61 -34 -76
-46 -16 -13 -33 -23 -39 -23 -15 0 -121 -76 -166 -118 -13 -13 -27 -21 -30
-18 -3 3 -11 -3 -18 -13 -8 -10 -26 -22 -41 -26 -16 -3 -35 -13 -43 -20 -8 -7
-19 -14 -25 -15 -18 -3 -100 -61 -95 -67 3 -3 -4 -7 -15 -9 -11 -2 -25 -10
-31 -18 -6 -9 -16 -16 -22 -16 -5 0 -13 -7 -16 -16 -3 -8 -10 -13 -15 -10 -11
7 -81 -32 -81 -46 0 -5 -5 -6 -10 -3 -6 3 -13 -1 -16 -9 -3 -9 -12 -16 -20
-16 -8 0 -14 -4 -14 -10 0 -5 -8 -6 -17 -3 -12 5 -15 2 -10 -9 4 -11 -2 -17
-23 -21 -15 -3 -35 -13 -44 -22 -9 -9 -16 -13 -16 -9 0 4 -9 -1 -20 -11 -11
-10 -20 -24 -20 -30 0 -7 -13 -15 -29 -18 -16 -3 -35 -12 -42 -19 -15 -14 -99
-65 -111 -67 -4 -1 -20 -13 -34 -26 -15 -14 -33 -25 -40 -25 -7 0 -17 -6 -21
-14 -4 -7 -26 -23 -48 -34 -22 -11 -49 -29 -60 -39 -11 -10 -29 -20 -40 -21
-11 -2 -22 -8 -25 -12 -3 -4 -14 -9 -25 -11 -11 -3 -21 -14 -23 -26 -2 -17
-12 -24 -38 -29 -18 -3 -31 -10 -28 -15 3 -5 -2 -9 -11 -9 -9 0 -13 -4 -10
-10 3 -5 0 -8 -7 -5 -16 6 -63 -33 -71 -60 -13 -43 -16 -78 -7 -100 6 -16 5
-25 -2 -27 -14 -5 -13 -65 1 -82 7 -9 7 -16 -2 -25 -9 -11 -9 -15 0 -18 8 -3
9 -12 3 -28 -10 -26 -9 -85 1 -85 3 0 4 -11 1 -25 -2 -14 -9 -25 -14 -25 -6 0
-5 -7 2 -15 7 -8 10 -15 6 -15 -3 0 -1 -12 4 -26 6 -14 6 -23 2 -20 -5 3 -9
-20 -10 -52 0 -40 2 -52 9 -42 8 11 8 8 3 -10 -4 -14 -8 -54 -9 -90 -1 -36 -3
-69 -4 -75 -2 -5 -2 -12 -1 -15 1 -3 3 -21 4 -40 1 -20 5 -40 9 -46 3 -6 3
-14 0 -18 -12 -11 -13 -46 -3 -46 7 0 7 -6 2 -17 -9 -17 -6 -112 3 -122 3 -2
-3 -13 -12 -24 -10 -11 -12 -17 -5 -13 15 9 16 -6 0 -22 -7 -7 -8 -12 -2 -12
6 0 10 -38 9 -99 -1 -68 2 -98 9 -94 6 4 6 0 -1 -8 -7 -8 -10 -24 -7 -36 3
-12 1 -30 -5 -42 -10 -17 -9 -21 4 -21 8 0 15 -5 15 -11 0 -5 -5 -7 -11 -3
-14 8 -9 -78 6 -88 6 -5 7 -11 0 -15 -5 -5 -10 -41 -10 -80 0 -40 -4 -73 -8
-73 -4 0 -5 -5 -2 -10 4 -6 10 -8 15 -5 5 3 5 -7 0 -23 -4 -16 -7 -65 -6 -110
0 -44 -2 -78 -6 -76 -4 3 -5 -2 -2 -10 3 -9 11 -13 17 -9 6 4 7 1 2 -7 -14
-22 -16 -72 -3 -64 6 4 8 3 4 -4 -10 -16 -15 -181 -6 -187 5 -3 5 -19 0 -35
-5 -17 -6 -30 -2 -30 4 0 0 -5 -8 -10 -13 -8 -13 -10 2 -10 14 0 16 -5 10 -22
-11 -29 -9 -109 2 -127 7 -10 5 -12 -4 -6 -10 6 -11 2 -5 -21 4 -16 7 -33 6
-39 -8 -52 -7 -85 2 -85 5 0 2 -9 -7 -19 -17 -18 -17 -20 1 -30 11 -6 13 -11
5 -11 -7 0 -10 -4 -7 -10 3 -6 1 -10 -6 -10 -8 0 -8 -4 -1 -13 6 -7 8 -23 5
-36 -4 -14 -1 -26 8 -31 11 -7 10 -10 -4 -16 -14 -5 -15 -9 -6 -20 6 -8 9 -14
5 -14 -3 0 -1 -11 4 -25 5 -14 5 -27 0 -30 -4 -3 -6 -26 -4 -53 3 -26 4 -51 4
-57 0 -5 -2 -34 -5 -62 -2 -31 1 -53 6 -53 6 0 7 -5 3 -11 -11 -19 -13 -132
-2 -153 6 -10 6 -16 1 -13 -6 4 -9 -32 -8 -86 1 -53 -3 -98 -9 -106 -9 -12 -7
-13 8 -7 19 6 19 6 4 -11 -10 -11 -14 -24 -9 -33 5 -8 8 -40 7 -70 -1 -30 3
-61 9 -69 7 -11 7 -13 -2 -7 -9 5 -13 -2 -14 -26 -1 -18 0 -37 1 -43 1 -5 4
-17 5 -25 2 -8 4 -17 5 -20 1 -3 1 -9 0 -15 -8 -28 -5 -135 3 -135 5 0 4 -7
-3 -15 -10 -12 -10 -18 1 -32 8 -9 9 -14 2 -10 -7 5 -11 -4 -11 -28 0 -19 4
-35 10 -35 5 0 6 -6 1 -12 -12 -20 -13 -41 -1 -55 7 -9 7 -13 -2 -13 -8 0 -10
-8 -7 -22 3 -12 2 -30 -4 -40 -5 -10 -6 -18 -1 -18 13 0 11 -84 -2 -92 -8 -6
-8 -8 0 -8 7 0 9 -11 6 -26 -3 -18 -1 -25 6 -20 7 4 8 -2 3 -21 -4 -16 -7 -61
-7 -100 1 -40 -2 -73 -7 -73 -4 0 0 -11 9 -25 9 -14 12 -25 7 -25 -5 0 -9 -9
-10 -20 -1 -11 2 -18 6 -16 4 3 8 -1 8 -9 0 -8 -4 -12 -9 -9 -4 3 -8 -4 -8
-16 0 -13 4 -19 12 -14 8 5 8 3 2 -7 -12 -19 -11 -152 1 -161 6 -5 5 -8 -2 -8
-16 0 -17 -46 -3 -55 7 -4 8 -11 1 -18 -11 -14 -10 -67 2 -67 4 0 0 -11 -8
-24 -14 -21 -14 -24 1 -30 11 -4 13 -10 6 -19 -13 -16 -12 -90 2 -99 8 -6 8
-8 0 -8 -7 0 -12 -19 -12 -45 -1 -31 2 -44 10 -39 7 5 8 3 2 -7 -12 -18 -13
-109 -2 -131 4 -9 4 -19 0 -22 -5 -3 -8 -42 -7 -88 0 -46 -2 -93 -6 -104 -4
-12 -5 -24 -2 -27 2 -3 6 -31 8 -63 2 -40 8 -60 19 -66 9 -5 16 -20 16 -33 0
-14 5 -25 10 -25 6 0 10 -6 10 -14 0 -8 5 -16 12 -18 7 -3 13 -16 13 -30 1
-26 7 -35 68 -100 20 -22 37 -44 37 -49 0 -5 8 -9 18 -9 10 0 22 -4 28 -10 5
-5 19 -11 31 -13 13 -2 26 -6 29 -10 4 -4 17 -7 29 -7 13 0 39 -7 59 -15 22
-9 36 -11 36 -5 0 7 8 6 22 -2 30 -16 40 -17 57 -4 12 9 13 8 7 -3 -6 -9 -5
-12 5 -9 8 3 22 1 32 -4 10 -5 17 -5 17 1 0 11 29 7 57 -7 10 -5 24 -7 31 -5
6 3 12 0 12 -7 0 -6 4 -8 10 -5 19 11 50 14 50 4 0 -6 5 -7 10 -4 6 4 8 11 4
16 -3 6 3 5 14 -2 12 -7 18 -17 15 -23 -4 -5 -1 -6 7 -1 17 11 70 14 70 5 0
-5 9 -6 20 -3 11 3 20 9 20 13 0 4 16 4 35 0 21 -5 35 -4 35 2 0 5 4 7 9 3 5
-3 12 -1 15 3 3 5 24 8 46 6 22 -1 42 1 45 6 3 5 14 7 25 5 11 -2 20 0 20 6 0
5 10 7 23 5 12 -2 31 1 42 7 11 6 23 10 27 9 4 -1 5 5 2 13 -4 10 0 15 14 15
12 0 24 5 27 10 4 6 11 8 16 5 5 -4 9 -2 9 4 0 6 6 8 14 5 8 -3 16 4 20 20 3
14 10 26 15 26 5 0 25 17 45 38 95 101 153 156 281 266 20 17 23 24 11 19 -19
-6 -19 -6 0 14 10 11 24 18 30 16 6 -2 17 4 25 13 12 16 12 17 -1 9 -9 -5 -8
0 4 13 11 12 21 20 24 18 2 -3 26 18 53 45 27 28 49 48 49 45 0 -3 11 6 25 20
14 14 25 29 25 34 0 6 6 9 13 8 6 -2 11 3 9 11 -2 8 3 11 12 8 9 -4 17 1 21
14 4 10 11 16 17 13 7 -4 8 -2 4 5 -8 12 30 50 50 51 7 0 19 11 28 25 9 14 22
23 28 19 7 -4 8 -3 4 4 -4 7 -2 12 4 12 6 0 10 3 8 8 -5 9 70 81 77 74 3 -3 5
-1 5 5 0 13 40 59 40 47 0 -5 5 -1 11 9 5 9 18 17 27 17 15 0 15 2 2 10 -10 6
-11 10 -3 10 7 0 25 11 40 25 16 14 37 32 48 41 11 8 14 13 8 9 -27 -13 -11 4
29 34 23 17 38 31 32 31 -5 0 6 10 24 21 17 12 32 25 32 31 0 5 4 7 8 4 5 -3
16 8 26 25 9 16 22 27 27 24 5 -4 9 -2 9 3 0 15 106 119 129 127 11 3 23 15
26 25 3 11 9 19 13 17 9 -2 262 253 262 264 0 5 4 8 9 6 13 -3 111 104 105
115 -3 5 -2 8 3 7 24 -4 33 4 33 30 0 21 6 30 21 34 12 3 18 10 14 16 -3 6 -1
11 5 11 6 0 8 4 5 10 -3 6 -1 10 4 10 6 0 10 3 10 8 -5 27 2 52 13 46 8 -5 9
-2 5 10 -7 18 8 56 27 68 6 5 7 8 1 8 -13 0 -12 99 1 108 6 4 9 27 7 52 -2 25
-3 52 -2 60 4 73 3 130 -3 130 -5 0 -8 5 -8 11 0 5 4 7 10 4 6 -4 8 20 4 67
-8 111 -8 147 -2 154 4 3 4 31 1 62 -3 32 -5 64 -4 72 0 8 1 31 0 50 0 19 -1
44 0 54 0 11 -4 27 -10 38 -7 13 -6 18 2 18 7 0 9 10 7 25 -3 14 -1 25 4 25 4
0 6 10 3 23 -3 12 -7 74 -10 137 -6 139 -6 120 3 208 4 41 4 76 0 78 -5 3 -8
10 -8 15 0 6 4 7 10 4 7 -4 7 3 0 19 -6 17 -6 35 0 51 5 14 6 27 0 30 -5 3 -6
20 -3 38 3 17 5 46 5 62 -1 17 -1 43 -1 58 -1 15 -5 36 -11 47 -7 14 -7 20 0
20 6 0 8 15 6 35 -3 19 -1 37 2 39 8 5 8 63 0 71 -3 3 -2 24 2 48 3 23 3 53 0
67 -4 14 -4 34 0 45 4 11 5 29 3 40 -10 48 -11 65 -3 70 5 3 6 20 2 38 -3 17
-5 46 -5 62 2 46 3 185 1 235 -1 25 1 57 4 72 4 16 2 29 -5 32 -9 3 -9 5 0 5
7 1 10 8 7 16 -4 8 -11 12 -17 8 -6 -4 -7 -1 -1 8 11 18 14 38 17 122 2 37 0
70 -3 72 -4 3 -6 51 -3 107 2 57 3 132 3 168 -1 36 -1 151 0 255 3 257 3 296
1 388 -4 149 -3 226 3 235 3 6 2 21 -3 34 -4 12 -6 32 -4 43 7 32 9 175 3 175
-3 0 -4 51 -2 112 1 62 2 133 2 158 -1 25 -2 87 -3 138 -1 50 1 92 5 92 3 0 4
21 1 48 -3 26 -5 61 -5 77 1 99 1 267 -1 305 l-1 45 -48 2 c-26 1 -48 -3 -48
-8 0 -5 -9 -9 -21 -9 -11 0 -18 -4 -15 -8 3 -5 -1 -9 -9 -9 -8 0 -15 4 -15 8
0 4 -8 6 -17 5 -11 0 -17 5 -15 14 2 8 1 12 -3 8 -4 -3 -19 -3 -33 2 -19 5
-31 3 -40 -7 -14 -15 -50 -9 -67 11 -19 21 -62 18 -84 -5 l-20 -22 -10 25 c-9
23 -14 25 -56 22 -25 -2 -50 -6 -55 -9 -5 -3 -20 3 -32 14 -12 12 -27 21 -32
22 -6 0 -19 2 -29 4 -9 2 -15 0 -12 -5 8 -13 -27 -21 -41 -9 -11 9 -14 8 -14
-1 0 -7 -8 -2 -18 10 -14 18 -22 20 -43 11 -18 -6 -30 -6 -37 1 -8 8 -13 7
-18 -6 -6 -16 -8 -16 -25 0 -11 9 -19 21 -19 26 0 10 -26 39 -35 38 -19 -1
-25 1 -24 8 3 19 -2 45 -7 39 -4 -4 -15 3 -25 14 -9 11 -28 21 -41 21 -12 1
-28 5 -33 9 -14 11 -55 7 -55 -4z"/>
</g>
</svg>
